# xmcd
#
# Track frame offsets:
#	150
#	9432
#	22077
#	32675
#	43712
#	58535
#	69747
#	80187
#	93347
#	110097
#	121570
#	131257
#
# Disc length: 1914 seconds
#
# Revision: 1
# Processed by: cddbd v1.4PL0 Copyright (c) Steve Scherf et al.
# Submitted via: audiograbber 1.82.02
#
DISCID=9a07780c
DTITLE=Mac Wiseman - At the Toronto Horseshoe Club
DYEAR=2001
DGENRE=Bluegrass
TTITLE0=Maple Sugar Sweetheart
TTITLE1=The Legend of the Irish Rebel
TTITLE2=Prince Edward Island (Is Heaven to Me)
TTITLE3=The Ghost of Bras d'Or
TTITLE4=Bringing Mary Home
TTITLE5=What a Waste of a Corn Likker
TTITLE6=My Nova Scotia Home
TTITLE7=(When It's Appleblossom Time) In Annapolis
TTITLE8=My Molly Bawn
TTITLE9=Atlantic Lullaby
TTITLE10=My Cape Breton Home
TTITLE11=Pistol Packin' Preacher
EXTD=
EXTT0=
EXTT1=
EXTT2=
EXTT3=
EXTT4=
EXTT5=
EXTT6=
EXTT7=
EXTT8=
EXTT9=
EXTT10=
EXTT11=
PLAYORDER=
